<svg xmlns="http://www.w3.org/2000/svg" xmlns:xlink="http://www.w3.org/1999/xlink" width="500" zoomAndPan="magnify" viewBox="0 0 375 374.999991" height="500" preserveAspectRatio="xMidYMid meet" version="1.0"><defs><g/><clipPath id="44d10091b6"><path d="M 197 132 L 246 132 L 246 171 L 197 171 Z M 197 132 " clip-rule="nonzero"/></clipPath><clipPath id="b400ab3f17"><path d="M 195.6875 143.214844 L 238.386719 131.609375 L 246.257812 160.558594 L 203.554688 172.164062 Z M 195.6875 143.214844 " clip-rule="nonzero"/></clipPath><clipPath id="71760ff046"><path d="M 195.6875 143.214844 L 238.386719 131.609375 L 246.257812 160.558594 L 203.554688 172.164062 Z M 195.6875 143.214844 " clip-rule="nonzero"/></clipPath></defs><g fill="#0277b5" fill-opacity="1"><g transform="translate(71.050327, 196.957803)"><g><path d="M 17.675781 -41.222656 C 14.292969 -41.414062 8.613281 -41.476562 4.53125 -38.351562 C -0.0625 -34.394531 2.679688 -27.757812 3.699219 -28.84375 C 4.273438 -29.226562 4.722656 -29.609375 5.167969 -29.925781 C 4.976562 -29.226562 4.847656 -28.269531 4.464844 -27.503906 C 1.851562 -17.546875 -2.679688 -6.191406 -2.617188 -3.191406 C -2.488281 -1.722656 -1.851562 -0.574219 0 0.0625 C 0.445312 0.191406 0.894531 0.253906 1.339844 0.445312 C 1.46875 0.511719 1.59375 0.574219 1.722656 0.574219 C 22.332031 2.425781 28.269531 -7.847656 28.96875 -11.804688 C 29.671875 -16.972656 26.289062 -20.164062 19.589844 -20.164062 C 28.078125 -23.800781 31.332031 -27.3125 31.839844 -30.882812 C 32.480469 -36.246094 27.820312 -40.648438 17.675781 -41.222656 Z M 19.652344 -12.058594 C 18.632812 -7.976562 12.570312 -5.425781 6.765625 -5.167969 C 7.464844 -7.976562 8.742188 -11.550781 9.636719 -14.929688 C 9.761719 -15.1875 9.828125 -15.441406 9.953125 -15.632812 C 16.65625 -18.1875 20.546875 -15.953125 19.652344 -12.058594 Z M 22.90625 -31.140625 C 22.332031 -28.078125 18.570312 -24.566406 12.058594 -21.949219 C 13.335938 -25.269531 14.230469 -27.503906 14.804688 -29.671875 C 15.441406 -31.839844 14.804688 -33.371094 13.65625 -34.394531 C 15.761719 -34.902344 17.546875 -34.902344 18.632812 -34.839844 C 22.015625 -34.519531 23.035156 -32.925781 22.90625 -31.140625 Z M 22.90625 -31.140625 "/></g></g></g><g fill="#0277b5" fill-opacity="1"><g transform="translate(105.954124, 196.957803)"><g><path d="M 1.914062 -25.332031 C 3.382812 -21.949219 -3.507812 -7.847656 -3.445312 -3.699219 C -3.382812 -2.359375 -2.742188 -1.148438 -0.894531 -0.445312 C 2.042969 0.703125 7.402344 -0.828125 7.082031 -1.53125 C 6.316406 -4.273438 7.273438 -8.742188 8.613281 -13.273438 C 9.570312 -16.464844 10.976562 -19.589844 11.230469 -21.058594 C 13.335938 -28.203125 1.148438 -27.820312 1.914062 -25.332031 Z M 10.210938 -38.222656 C 7.019531 -38.542969 4.148438 -36.945312 3.699219 -34.519531 C 3.382812 -32.097656 5.679688 -29.609375 8.804688 -29.160156 C 11.933594 -28.652344 14.804688 -30.375 15.1875 -32.863281 C 15.507812 -35.222656 13.335938 -37.585938 10.210938 -38.222656 Z M 10.210938 -38.222656 "/></g></g></g><g fill="#0277b5" fill-opacity="1"><g transform="translate(121.268408, 196.957803)"><g><path d="M 15.761719 -27.3125 C 14.804688 -27.566406 13.910156 -27.820312 13.082031 -27.820312 C 12.632812 -27.820312 12.25 -27.820312 11.933594 -27.820312 C 6.0625 -27.503906 0.191406 -23.097656 -2.042969 -16.910156 C -4.847656 -9.253906 -1.402344 -1.402344 5.679688 0.511719 C 12.570312 2.488281 20.484375 -2.359375 23.289062 -9.953125 C 26.226562 -17.675781 22.78125 -25.460938 15.761719 -27.3125 Z M 12.761719 -7.59375 C 10.402344 -3.191406 7.464844 -2.042969 6.125 -4.914062 C 4.976562 -7.785156 6.191406 -14.996094 8.613281 -19.335938 C 10.210938 -22.140625 11.996094 -23.671875 13.398438 -23.546875 C 13.65625 -23.546875 13.78125 -23.480469 13.910156 -23.289062 C 14.484375 -23.097656 14.929688 -22.714844 15.1875 -21.949219 C 16.398438 -19.015625 15.1875 -11.933594 12.761719 -7.59375 Z M 12.761719 -7.59375 "/></g></g></g><g fill="#0277b5" fill-opacity="1"><g transform="translate(150.748392, 196.957803)"><g><path d="M 17.675781 -41.222656 C 14.292969 -41.414062 8.613281 -41.476562 4.53125 -38.351562 C -0.0625 -34.394531 2.679688 -27.757812 3.699219 -28.84375 C 4.273438 -29.226562 4.722656 -29.609375 5.167969 -29.925781 C 4.976562 -29.226562 4.847656 -28.269531 4.464844 -27.503906 C 1.851562 -17.546875 -2.679688 -6.191406 -2.617188 -3.191406 C -2.488281 -1.722656 -1.851562 -0.574219 0 0.0625 C 0.445312 0.191406 0.894531 0.253906 1.339844 0.445312 C 1.46875 0.511719 1.59375 0.574219 1.722656 0.574219 C 22.332031 2.425781 28.269531 -7.847656 28.96875 -11.804688 C 29.671875 -16.972656 26.289062 -20.164062 19.589844 -20.164062 C 28.078125 -23.800781 31.332031 -27.3125 31.839844 -30.882812 C 32.480469 -36.246094 27.820312 -40.648438 17.675781 -41.222656 Z M 19.652344 -12.058594 C 18.632812 -7.976562 12.570312 -5.425781 6.765625 -5.167969 C 7.464844 -7.976562 8.742188 -11.550781 9.636719 -14.929688 C 9.761719 -15.1875 9.828125 -15.441406 9.953125 -15.632812 C 16.65625 -18.1875 20.546875 -15.953125 19.652344 -12.058594 Z M 22.90625 -31.140625 C 22.332031 -28.078125 18.570312 -24.566406 12.058594 -21.949219 C 13.335938 -25.269531 14.230469 -27.503906 14.804688 -29.671875 C 15.441406 -31.839844 14.804688 -33.371094 13.65625 -34.394531 C 15.761719 -34.902344 17.546875 -34.902344 18.632812 -34.839844 C 22.015625 -34.519531 23.035156 -32.925781 22.90625 -31.140625 Z M 22.90625 -31.140625 "/></g></g></g><g fill="#0277b5" fill-opacity="1"><g transform="translate(185.652188, 196.957803)"><g><path d="M 15.761719 -27.3125 C 14.804688 -27.566406 13.910156 -27.820312 13.082031 -27.820312 C 12.632812 -27.820312 12.25 -27.820312 11.933594 -27.820312 C 6.0625 -27.503906 0.191406 -23.097656 -2.042969 -16.910156 C -4.847656 -9.253906 -1.402344 -1.402344 5.679688 0.511719 C 12.570312 2.488281 20.484375 -2.359375 23.289062 -9.953125 C 26.226562 -17.675781 22.78125 -25.460938 15.761719 -27.3125 Z M 12.761719 -7.59375 C 10.402344 -3.191406 7.464844 -2.042969 6.125 -4.914062 C 4.976562 -7.785156 6.191406 -14.996094 8.613281 -19.335938 C 10.210938 -22.140625 11.996094 -23.671875 13.398438 -23.546875 C 13.65625 -23.546875 13.78125 -23.480469 13.910156 -23.289062 C 14.484375 -23.097656 14.929688 -22.714844 15.1875 -21.949219 C 16.398438 -19.015625 15.1875 -11.933594 12.761719 -7.59375 Z M 12.761719 -7.59375 "/></g></g></g><g fill="#0277b5" fill-opacity="1"><g transform="translate(215.132172, 196.957803)"><g><path d="M 15.761719 -27.3125 C 14.804688 -27.566406 13.910156 -27.820312 13.082031 -27.820312 C 12.632812 -27.820312 12.25 -27.820312 11.933594 -27.820312 C 6.0625 -27.503906 0.191406 -23.097656 -2.042969 -16.910156 C -4.847656 -9.253906 -1.402344 -1.402344 5.679688 0.511719 C 12.570312 2.488281 20.484375 -2.359375 23.289062 -9.953125 C 26.226562 -17.675781 22.78125 -25.460938 15.761719 -27.3125 Z M 12.761719 -7.59375 C 10.402344 -3.191406 7.464844 -2.042969 6.125 -4.914062 C 4.976562 -7.785156 6.191406 -14.996094 8.613281 -19.335938 C 10.210938 -22.140625 11.996094 -23.671875 13.398438 -23.546875 C 13.65625 -23.546875 13.78125 -23.480469 13.910156 -23.289062 C 14.484375 -23.097656 14.929688 -22.714844 15.1875 -21.949219 C 16.398438 -19.015625 15.1875 -11.933594 12.761719 -7.59375 Z M 12.761719 -7.59375 "/></g></g></g><g fill="#0277b5" fill-opacity="1"><g transform="translate(244.612156, 196.957803)"><g><path d="M 18.378906 -27.820312 C 11.230469 -28.203125 0.957031 -26.035156 0.191406 -19.460938 C 0 -17.039062 1.722656 -15.121094 3.957031 -13.78125 C 6.316406 -12.1875 8.804688 -10.847656 10.847656 -9.570312 C 12.632812 -8.613281 13.78125 -7.847656 13.71875 -6.507812 C 13.65625 -5.617188 11.675781 -4.53125 9.316406 -4.914062 C 6.445312 -5.167969 4.402344 -6.507812 4.339844 -7.53125 C 4.273438 -8.359375 4.722656 -8.742188 5.296875 -9.378906 C 5.679688 -9.636719 5.679688 -10.273438 5.234375 -10.464844 C 3.191406 -12.1875 -1.914062 -11.675781 -3.0625 -8.167969 C -4.53125 -3.507812 -0.445312 0.574219 8.105469 0.894531 C 15.953125 1.148438 20.546875 -1.722656 21.3125 -4.53125 C 21.886719 -7.402344 20.609375 -9.253906 18.503906 -10.976562 C 15.441406 -13.398438 12.632812 -14.929688 11.101562 -16.015625 C 10.464844 -16.464844 8.996094 -17.546875 8.804688 -18.824219 C 8.296875 -21.25 10.402344 -24.054688 15.3125 -24.183594 C 16.972656 -24.3125 17.675781 -23.609375 17.164062 -22.84375 C 15.1875 -19.910156 14.230469 -19.144531 14.804688 -17.546875 C 16.015625 -14.484375 21.25 -13.464844 22.84375 -15.570312 C 21.949219 -18.121094 24.054688 -19.71875 24.695312 -22.78125 C 25.203125 -25.140625 22.90625 -27.375 18.378906 -27.820312 Z M 18.378906 -27.820312 "/></g></g></g><g fill="#0277b5" fill-opacity="1"><g transform="translate(273.64548, 196.957803)"><g><path d="M 20.484375 -23.671875 C 20.417969 -25.011719 19.78125 -25.714844 18.632812 -26.226562 C 17.804688 -26.480469 16.015625 -26.546875 13.910156 -26.480469 C 14.738281 -28.652344 15.441406 -30.375 15.761719 -31.777344 C 17.804688 -39.050781 6.191406 -39.117188 7.148438 -36.882812 C 7.65625 -35.605469 6.574219 -31.523438 5.039062 -26.671875 C 3.574219 -26.992188 2.488281 -27.503906 1.722656 -28.203125 C 0.191406 -29.480469 -3 -21.503906 2.742188 -21.058594 C 2.808594 -21.058594 3 -21.058594 3.125 -20.929688 C 1.148438 -14.738281 -0.957031 -8.550781 -0.894531 -5.742188 C -0.828125 -3.0625 0.574219 -0.445312 3.699219 0 C 10.144531 0.957031 14.738281 -3.191406 15.761719 -6.507812 C 15.953125 -7.082031 15.441406 -7.65625 14.804688 -7.59375 C 13.71875 -7.464844 11.742188 -4.976562 9.253906 -5.234375 C 7.148438 -5.679688 7.847656 -8.296875 10.144531 -15.121094 C 10.785156 -17.164062 11.292969 -19.144531 11.996094 -21.058594 C 12.632812 -21.058594 13.335938 -20.929688 13.78125 -20.929688 C 16.335938 -20.675781 16.972656 -19.910156 17.804688 -18.570312 C 18.25 -18.378906 20.546875 -21.441406 20.484375 -23.671875 Z M 20.484375 -23.671875 "/></g></g></g><g clip-path="url(#44d10091b6)"><g clip-path="url(#b400ab3f17)"><g clip-path="url(#71760ff046)"><path fill="#1ea1e6" d="M 241.636719 157.480469 C 241.636719 157.480469 241.46875 161.859375 225.421875 166.21875 L 208.679688 170.769531 C 207.378906 165.988281 216.539062 165.84375 212.277344 161.828125 C 198.519531 148.867188 195.585938 150.71875 198.519531 148.867188 C 201.453125 147.019531 198.574219 148.855469 224.011719 154.425781 C 234.527344 132.851562 231.664062 132.933594 234.597656 132.785156 C 237.535156 132.636719 234.621094 132.773438 235.75 153.828125 C 238.851562 152.988281 239.886719 153.542969 240.996094 155.125 C 244.726562 155.046875 245.152344 156.523438 245.152344 156.523438 Z M 241.636719 157.480469 " fill-opacity="1" fill-rule="nonzero"/></g></g></g></svg>