<svg xmlns="http://www.w3.org/2000/svg" xmlns:xlink="http://www.w3.org/1999/xlink" width="500" zoomAndPan="magnify" viewBox="0 0 375 374.999991" height="500" preserveAspectRatio="xMidYMid meet" version="1.0"><defs><clipPath id="f5c6aaa7ec"><path d="M 110.386719 126.894531 L 251.246094 126.894531 L 251.246094 267.753906 L 110.386719 267.753906 Z M 110.386719 126.894531 " clip-rule="nonzero"/></clipPath><clipPath id="b5b66fa938"><path d="M 189 87 L 288 87 L 288 164 L 189 164 Z M 189 87 " clip-rule="nonzero"/></clipPath><clipPath id="fd8d4e5613"><path d="M 199.796875 61.679688 L 300.230469 114.15625 L 259.417969 192.273438 L 158.980469 139.796875 Z M 199.796875 61.679688 " clip-rule="nonzero"/></clipPath><clipPath id="ff672799a4"><path d="M 199.796875 61.679688 L 300.230469 114.15625 L 259.417969 192.273438 L 158.980469 139.796875 Z M 199.796875 61.679688 " clip-rule="nonzero"/></clipPath><clipPath id="627991be88"><path d="M 199.796875 61.679688 L 300.230469 114.15625 L 259.417969 192.273438 L 158.980469 139.796875 Z M 199.796875 61.679688 " clip-rule="nonzero"/></clipPath><clipPath id="1d0525f0df"><path d="M 161 118 L 185 118 L 185 145 L 161 145 Z M 161 118 " clip-rule="nonzero"/></clipPath><clipPath id="41cac668b9"><path d="M 199.796875 61.679688 L 300.230469 114.15625 L 259.417969 192.273438 L 158.980469 139.796875 Z M 199.796875 61.679688 " clip-rule="nonzero"/></clipPath><clipPath id="aed4c333fe"><path d="M 199.796875 61.679688 L 300.230469 114.15625 L 259.417969 192.273438 L 158.980469 139.796875 Z M 199.796875 61.679688 " clip-rule="nonzero"/></clipPath><clipPath id="4e4c477f82"><path d="M 199.796875 61.679688 L 300.230469 114.15625 L 259.417969 192.273438 L 158.980469 139.796875 Z M 199.796875 61.679688 " clip-rule="nonzero"/></clipPath><clipPath id="a6aa6d0098"><path d="M 169 117 L 277 117 L 277 157 L 169 157 Z M 169 117 " clip-rule="nonzero"/></clipPath><clipPath id="eabc3161e2"><path d="M 199.796875 61.679688 L 300.230469 114.15625 L 259.417969 192.273438 L 158.980469 139.796875 Z M 199.796875 61.679688 " clip-rule="nonzero"/></clipPath><clipPath id="e4d3843d8c"><path d="M 199.796875 61.679688 L 300.230469 114.15625 L 259.417969 192.273438 L 158.980469 139.796875 Z M 199.796875 61.679688 " clip-rule="nonzero"/></clipPath><clipPath id="8c6224ebc0"><path d="M 199.796875 61.679688 L 300.230469 114.15625 L 259.417969 192.273438 L 158.980469 139.796875 Z M 199.796875 61.679688 " clip-rule="nonzero"/></clipPath><clipPath id="2700c1ea47"><path d="M 160 86 L 289 86 L 289 166 L 160 166 Z M 160 86 " clip-rule="nonzero"/></clipPath><clipPath id="d1d0fe1eb8"><path d="M 199.796875 61.679688 L 300.230469 114.15625 L 259.417969 192.273438 L 158.980469 139.796875 Z M 199.796875 61.679688 " clip-rule="nonzero"/></clipPath><clipPath id="61cbffd477"><path d="M 199.796875 61.679688 L 300.230469 114.15625 L 259.417969 192.273438 L 158.980469 139.796875 Z M 199.796875 61.679688 " clip-rule="nonzero"/></clipPath><clipPath id="f0d91b7494"><path d="M 199.796875 61.679688 L 300.230469 114.15625 L 259.417969 192.273438 L 158.980469 139.796875 Z M 199.796875 61.679688 " clip-rule="nonzero"/></clipPath></defs><g clip-path="url(#f5c6aaa7ec)"><path fill="#0277b5" d="M 239.476562 126.894531 L 122.222656 126.894531 C 115.742188 126.894531 110.527344 132.179688 110.527344 138.589844 L 110.527344 256.054688 C 110.527344 262.539062 115.8125 267.753906 122.222656 267.753906 L 239.40625 267.753906 C 245.890625 267.753906 251.105469 262.46875 251.105469 256.054688 L 251.105469 138.589844 C 251.175781 132.179688 245.960938 126.894531 239.476562 126.894531 Z M 152.171875 243.089844 L 131.382812 243.089844 L 131.382812 180.65625 L 152.171875 180.65625 Z M 141.742188 173.117188 C 135.1875 173.117188 129.902344 167.832031 129.902344 161.28125 C 129.902344 154.726562 135.1875 149.441406 141.742188 149.441406 C 148.296875 149.441406 153.578125 154.726562 153.578125 161.28125 C 153.578125 167.832031 148.296875 173.117188 141.742188 173.117188 Z M 230.386719 243.089844 L 209.527344 243.089844 L 209.035156 206.023438 C 209.035156 206.023438 209.527344 196.160156 198.75 196.230469 C 187.96875 196.300781 186.488281 206.023438 186.488281 206.023438 L 186.488281 243.089844 L 165.488281 243.089844 L 165.488281 180.65625 L 185.640625 180.65625 L 185.640625 189.253906 C 185.640625 189.253906 186.488281 186.4375 191.136719 183.125 C 195.789062 179.8125 203.46875 179.109375 206.78125 179.25 C 210.09375 179.390625 214.601562 178.824219 222.140625 184.039062 C 230.246094 189.605469 230.457031 204.191406 230.457031 204.191406 Z M 230.386719 243.089844 " fill-opacity="1" fill-rule="nonzero"/></g><g clip-path="url(#b5b66fa938)"><g clip-path="url(#fd8d4e5613)"><g clip-path="url(#ff672799a4)"><g clip-path="url(#627991be88)"><path fill="#004a98" d="M 269.363281 137.300781 C 265.597656 146.183594 258.863281 162.167969 256.59375 163.300781 C 253.792969 164.699219 236.269531 162.375 217.359375 153.113281 C 204.558594 146.84375 189.136719 126.898438 189.734375 124.886719 C 190.261719 123.125 198.605469 111.039062 202.773438 102.910156 C 197.734375 96.332031 193.507812 90.632812 192.003906 87.683594 C 201.449219 87.402344 214.34375 89.203125 223.792969 88.921875 C 230.582031 88.742188 251.042969 89.742188 251.042969 89.742188 C 251.042969 89.742188 261.140625 103.589844 264.160156 107.777344 C 267.90625 112.714844 284.089844 130.863281 287.25 135.496094 C 283.242188 136.597656 276.765625 137.09375 269.363281 137.300781 Z M 269.363281 137.300781 " fill-opacity="1" fill-rule="nonzero"/></g></g></g></g><g clip-path="url(#1d0525f0df)"><g clip-path="url(#41cac668b9)"><g clip-path="url(#aed4c333fe)"><g clip-path="url(#4e4c477f82)"><path fill="#ffe497" d="M 175.492188 144.109375 C 174.839844 145.390625 168.570312 143.914062 166 141.171875 L 167.925781 136.890625 C 167.925781 136.890625 165.605469 139.253906 163.988281 139.96875 C 163.140625 139.214844 161.40625 136.59375 161.40625 136.59375 C 161.40625 136.59375 166.558594 130.886719 169.121094 128.957031 C 171.054688 127.632812 173.167969 126.5625 175.039062 125.359375 C 176.140625 124.722656 176.746094 124.140625 177.410156 123.402344 C 177.210938 122.96875 177.089844 122.507812 177.082031 122.054688 C 177.011719 119.070312 179.457031 117.457031 182.199219 118.523438 C 182.277344 118.550781 182.351562 118.585938 182.425781 118.617188 C 185.285156 119.910156 184.871094 123.863281 182.367188 125.390625 C 182.085938 125.5625 181.792969 125.675781 181.5 125.746094 C 180.375 134.976562 177.355469 140.433594 175.492188 144.109375 Z M 175.492188 144.109375 " fill-opacity="1" fill-rule="nonzero"/></g></g></g></g><g clip-path="url(#a6aa6d0098)"><g clip-path="url(#eabc3161e2)"><g clip-path="url(#e4d3843d8c)"><g clip-path="url(#8c6224ebc0)"><path fill="#ffffff" d="M 174.289062 129.121094 C 173.535156 130.082031 172.707031 130.988281 171.941406 131.941406 C 171.339844 132.695312 170.179688 133.429688 169.894531 134.359375 C 169.820312 134.601562 170.023438 134.9375 170.285156 134.960938 C 171.4375 135.074219 172.308594 133.664062 172.933594 132.867188 C 173.753906 131.824219 174.378906 130.644531 174.804688 129.390625 C 174.902344 129.109375 174.46875 128.890625 174.289062 129.121094 Z M 175.179688 131.953125 C 174.253906 133.050781 173.585938 134.3125 172.859375 135.542969 C 172.03125 136.953125 170.96875 138.382812 170.59375 139.984375 C 170.519531 140.308594 170.945312 140.527344 171.167969 140.285156 C 172.132812 139.234375 172.710938 137.851562 173.390625 136.601562 C 174.183594 135.148438 175.0625 133.730469 175.507812 132.125 C 175.5625 131.941406 175.300781 131.808594 175.179688 131.953125 Z M 222.570312 118.050781 C 224.085938 120.863281 226.359375 123.15625 227.949219 125.9375 C 228.769531 127.367188 229.855469 129.304688 231.070312 130.4375 C 231.6875 131.015625 233.863281 130.703125 234.601562 130.742188 C 238.292969 130.953125 242.027344 130.535156 245.722656 130.46875 C 251.246094 130.367188 256.6875 131.167969 262.179688 131.574219 C 266.601562 131.902344 271.824219 132.796875 276.164062 131.511719 C 276.421875 131.4375 276.332031 131.082031 276.085938 131.070312 C 267.308594 130.742188 258.621094 129.21875 249.851562 128.90625 C 243.90625 128.695312 237.929688 129.378906 231.988281 129.597656 C 230.835938 129.640625 229.277344 126.421875 228.671875 125.484375 C 226.917969 122.785156 224.902344 120.378906 223.003906 117.777344 C 222.808594 117.507812 222.410156 117.757812 222.570312 118.050781 Z M 214.761719 143.390625 C 223.285156 151.144531 236.214844 156.90625 247.863281 156.1875 C 248.089844 156.171875 248.132812 155.8125 247.898438 155.777344 C 235.753906 153.929688 225.328125 149.625 215.042969 142.992188 C 214.804688 142.839844 214.558594 143.207031 214.761719 143.390625 Z M 214.761719 143.390625 " fill-opacity="1" fill-rule="nonzero"/></g></g></g></g><g clip-path="url(#2700c1ea47)"><g clip-path="url(#d1d0fe1eb8)"><g clip-path="url(#61cbffd477)"><g clip-path="url(#f0d91b7494)"><path fill="#000000" d="M 288.347656 134.804688 C 286.375 131.507812 283.480469 128.5625 281 125.648438 C 277.230469 121.230469 273.40625 116.859375 269.632812 112.445312 C 263.644531 105.445312 258.421875 97.839844 252.859375 90.503906 C 251.46875 88.671875 250.898438 88.746094 248.597656 88.683594 C 243.46875 88.546875 238.339844 88.527344 233.210938 88.398438 C 227.519531 88.253906 221.828125 88.460938 216.140625 88.246094 C 208.511719 87.957031 200.769531 86.859375 193.128906 87.351562 C 193.074219 87.261719 193.019531 87.171875 192.964844 87.078125 C 192.207031 85.78125 190.433594 87.003906 191.039062 88.289062 C 192.058594 90.449219 193.269531 92.542969 194.601562 94.589844 C 192.351562 96.125 191 99.324219 189.785156 101.652344 C 188.203125 104.683594 186.601562 107.703125 185.011719 110.726562 C 183.816406 113.003906 182.738281 115.511719 181.433594 117.828125 C 179.472656 117.277344 177.257812 118.292969 176.5 120.292969 C 176.058594 121.449219 176.113281 122.640625 176.523438 123.691406 C 173.671875 125.90625 170.175781 127.164062 167.398438 129.53125 C 164.984375 131.589844 163.015625 133.8125 160.96875 136.1875 C 160.800781 136.382812 160.738281 136.691406 160.898438 136.914062 C 161.738281 138.101562 162.652344 139.269531 163.65625 140.328125 C 163.8125 140.492188 164.0625 140.484375 164.25 140.382812 C 165.066406 139.941406 165.816406 139.414062 166.527344 138.832031 C 166.210938 139.539062 165.894531 140.246094 165.570312 140.949219 C 165.476562 141.148438 165.503906 141.375 165.667969 141.53125 C 168.441406 144.15625 174.539062 147.90625 176.972656 143.328125 C 179.636719 138.324219 181.570312 132.410156 182.195312 126.628906 C 183.570312 126.128906 184.714844 124.914062 185.230469 123.480469 C 185.84375 121.773438 185.421875 118.304688 183.355469 118.183594 C 184.835938 115.554688 185.949219 112.511719 187.171875 110.160156 C 188.515625 107.570312 189.898438 105 191.175781 102.378906 C 192.359375 99.957031 193.566406 97.34375 195.578125 96.050781 C 197.40625 98.71875 199.414062 101.304688 201.457031 103.84375 C 198.757812 108.5625 196.085938 113.28125 193.164062 117.890625 C 191.289062 120.851562 188.074219 123.671875 189.683594 127.199219 C 192.164062 132.632812 196.503906 137.253906 200.574219 141.535156 C 206.539062 147.808594 213.054688 152.742188 220.941406 156.3125 C 229.136719 160.019531 237.859375 162.820312 246.71875 164.386719 C 249.847656 164.941406 255.671875 166.421875 258.28125 163.773438 C 261.804688 160.203125 263.703125 154.214844 265.699219 149.742188 C 267.34375 146.042969 268.933594 142.316406 270.457031 138.566406 C 276.242188 138.324219 281.980469 137.785156 287.636719 136.730469 C 288.488281 136.574219 288.738281 135.453125 288.347656 134.804688 Z M 175.597656 141.769531 C 174.742188 143.257812 174.589844 143.800781 172.613281 143.511719 C 170.980469 143.273438 169.21875 142.785156 167.785156 141.976562 C 166.085938 141.019531 166.550781 141.125 167.230469 139.613281 C 167.605469 138.777344 167.984375 137.949219 168.359375 137.117188 C 168.589844 136.613281 167.96875 136.160156 167.570312 136.554688 C 165.464844 138.644531 164.15625 140.054688 162.355469 137.003906 C 162.238281 136.800781 162.132812 136.714844 162.058594 136.683594 C 162.144531 136.636719 162.285156 136.539062 162.492188 136.324219 C 163.261719 135.527344 164.144531 134.898438 164.90625 134.066406 C 167.054688 131.71875 169.105469 129.679688 171.8125 127.960938 C 173.742188 126.738281 175.332031 125.714844 176.816406 124.3125 C 177.34375 125.253906 178.183594 126.039062 179.226562 126.515625 C 179.636719 126.703125 180.042969 126.808594 180.449219 126.851562 C 179.519531 132.039062 178.320312 137.046875 175.597656 141.769531 Z M 182.78125 120.328125 C 183.214844 120.847656 183.324219 121.558594 183.238281 122.210938 C 183.046875 123.71875 181.742188 125.023438 180.1875 124.660156 C 178.679688 124.308594 177.84375 122.601562 178.003906 121.179688 C 178.269531 118.878906 180.339844 118.539062 182.21875 118.886719 C 182.347656 119.417969 182.390625 119.859375 182.78125 120.328125 Z M 257.199219 160.136719 C 256.507812 161.347656 256.207031 162.078125 254.8125 162.199219 C 252.328125 162.421875 249.765625 161.976562 247.324219 161.585938 C 238.671875 160.203125 230.242188 157.316406 222.226562 153.851562 C 209.347656 148.285156 199.972656 137.828125 191.546875 126.914062 C 190.320312 125.332031 190.503906 124.75 191.4375 123.082031 C 192.789062 120.671875 194.304688 118.351562 195.765625 116.007812 C 197.929688 112.53125 200.53125 108.914062 202.480469 105.113281 C 204.488281 107.589844 206.503906 110.027344 208.375 112.453125 C 212.046875 117.207031 215.703125 121.976562 219.21875 126.851562 C 220.703125 128.90625 222.152344 130.984375 223.523438 133.121094 C 224.472656 134.601562 225.894531 135.964844 226.492188 137.613281 C 226.628906 137.992188 226.957031 138.230469 227.363281 138.222656 C 240.414062 137.980469 253.816406 138.992188 267.046875 138.679688 C 263.886719 145.890625 261.109375 153.289062 257.199219 160.136719 Z M 271.988281 136.230469 C 265.589844 136.503906 259.179688 136.472656 252.78125 136.425781 C 246.605469 136.386719 240.429688 136.28125 234.253906 136.285156 C 233.566406 136.289062 227.882812 136.398438 228.019531 136.746094 C 227.496094 135.425781 227.214844 133.972656 226.488281 132.75 C 221.441406 124.214844 214.953125 116.445312 208.910156 108.609375 C 205.496094 104.183594 201.804688 99.796875 198.417969 95.230469 C 198.933594 95.230469 199.488281 95.296875 200.082031 95.4375 C 205.753906 96.78125 211.105469 99.097656 216.496094 101.25 C 222.738281 103.738281 228.964844 106.011719 235.089844 108.800781 C 235.199219 108.851562 235.300781 108.851562 235.386719 108.824219 C 235.980469 110.546875 237.597656 112.359375 238.5625 113.09375 C 240.894531 114.863281 246.96875 118.316406 249.695312 115.402344 C 252.515625 112.390625 248.105469 108.753906 245.492188 107.671875 C 245.464844 107.621094 245.421875 107.578125 245.363281 107.542969 C 243.085938 106.207031 239.453125 104.429688 236.796875 105.464844 C 235.464844 105.980469 235.066406 106.902344 235.179688 107.9375 C 228.976562 104.449219 222.238281 102.335938 215.671875 99.664062 C 210.078125 97.390625 204.351562 94.761719 198.34375 93.773438 C 197.980469 93.714844 197.636719 93.695312 197.304688 93.703125 C 195.96875 91.839844 194.695312 89.945312 193.519531 88.003906 C 206.160156 88.574219 218.75 89.253906 231.398438 89.613281 C 236.539062 89.761719 241.644531 90.058594 246.769531 90.453125 C 248.011719 90.550781 249.257812 90.617188 250.5 90.695312 C 250.929688 91.304688 251.355469 91.914062 251.78125 92.527344 C 262.050781 107.367188 273.679688 120.828125 285.027344 134.800781 C 280.824219 135.882812 276.257812 136.050781 271.988281 136.230469 Z M 239.015625 106.617188 C 240.972656 106.667969 243.285156 107.3125 245.058594 108.125 C 245.101562 108.144531 245.140625 108.15625 245.179688 108.160156 C 246.425781 109.335938 250.28125 113.855469 247.339844 114.351562 C 244.613281 114.808594 241.480469 112.960938 239.378906 111.429688 C 237.621094 110.152344 235.238281 106.523438 239.015625 106.617188 Z M 239.015625 106.617188 " fill-opacity="1" fill-rule="nonzero"/></g></g></g></g></svg>