<svg xmlns="http://www.w3.org/2000/svg" xmlns:xlink="http://www.w3.org/1999/xlink" width="500" zoomAndPan="magnify" viewBox="0 0 375 374.999991" height="500" preserveAspectRatio="xMidYMid meet" version="1.0"><defs><g/><clipPath id="e89d3441e4"><path d="M 102.820312 131.925781 L 284.363281 131.925781 L 284.363281 313.46875 L 102.820312 313.46875 Z M 102.820312 131.925781 " clip-rule="nonzero"/></clipPath><clipPath id="b46bef138e"><path d="M 193.59375 131.925781 C 143.460938 131.925781 102.820312 172.566406 102.820312 222.699219 C 102.820312 272.832031 143.460938 313.46875 193.59375 313.46875 C 243.722656 313.46875 284.363281 272.832031 284.363281 222.699219 C 284.363281 172.566406 243.722656 131.925781 193.59375 131.925781 " clip-rule="nonzero"/></clipPath><clipPath id="0736982707"><path d="M 102.820312 131.925781 L 284.320312 131.925781 L 284.320312 313.425781 L 102.820312 313.425781 Z M 102.820312 131.925781 " clip-rule="nonzero"/></clipPath><clipPath id="5eb625e0c3"><path d="M 193.570312 131.925781 C 143.449219 131.925781 102.820312 172.558594 102.820312 222.675781 C 102.820312 272.796875 143.449219 313.425781 193.570312 313.425781 C 243.691406 313.425781 284.320312 272.796875 284.320312 222.675781 C 284.320312 172.558594 243.691406 131.925781 193.570312 131.925781 " clip-rule="nonzero"/></clipPath><clipPath id="0fc4ae08ae"><path d="M 149.054688 202.53125 L 239.710938 202.53125 L 239.710938 293.960938 L 149.054688 293.960938 Z M 149.054688 202.53125 " clip-rule="nonzero"/></clipPath><clipPath id="5b30e5a0cf"><path d="M 164.28125 288.488281 L 166.582031 288.488281 L 166.582031 294.03125 L 164.28125 294.03125 Z M 164.28125 288.488281 " clip-rule="nonzero"/></clipPath><clipPath id="5dce6a27ce"><path d="M 224 202.53125 L 227 202.53125 L 227 209 L 224 209 Z M 224 202.53125 " clip-rule="nonzero"/></clipPath></defs><rect x="-37.5" width="450" fill="#ffffff" y="-37.499999" height="449.999989" fill-opacity="1"/><rect x="-37.5" width="450" fill="#ffffff" y="-37.499999" height="449.999989" fill-opacity="1"/><g clip-path="url(#e89d3441e4)"><g clip-path="url(#b46bef138e)"><path fill="#ffffff" d="M 102.820312 131.925781 L 284.363281 131.925781 L 284.363281 313.46875 L 102.820312 313.46875 Z M 102.820312 131.925781 " fill-opacity="1" fill-rule="nonzero"/></g></g><g clip-path="url(#0736982707)"><g clip-path="url(#5eb625e0c3)"><path stroke-linecap="butt" transform="matrix(0.749855, 0, 0, 0.749855, 102.82039, 131.926983)" fill="none" stroke-linejoin="miter" d="M 121.023339 -0.00160309 C 54.182267 -0.00160309 -0.000103017 54.185976 -0.000103017 121.021839 C -0.000103017 187.862911 54.182267 242.045281 121.023339 242.045281 C 187.864411 242.045281 242.046781 187.862911 242.046781 121.021839 C 242.046781 54.185976 187.864411 -0.00160309 121.023339 -0.00160309 " stroke="#000000" stroke-width="8" stroke-opacity="1" stroke-miterlimit="4"/></g></g><g clip-path="url(#0fc4ae08ae)"><path fill="#0277b5" d="M 237.414062 250.21875 C 237.1875 250.773438 236.746094 251.214844 236.195312 251.445312 L 235.328125 251.808594 L 232.214844 242.113281 L 232.171875 242.03125 C 231.648438 241.023438 230.617188 240.382812 229.480469 240.355469 C 227.917969 240.324219 226.445312 241.089844 225.582031 242.390625 L 225.5625 242.421875 C 224.675781 243.972656 224.339844 245.777344 224.613281 247.542969 C 224.882812 249.246094 225.613281 253.660156 225.910156 255.445312 C 225.503906 255.679688 225.109375 255.9375 224.738281 256.222656 C 224.738281 256.222656 224.734375 256.222656 224.734375 256.222656 L 206.480469 263.832031 L 204.371094 264.710938 L 203.160156 265.214844 C 203.109375 264.9375 203.027344 264.667969 202.914062 264.414062 L 198.1875 253.890625 C 199.929688 254.023438 201.949219 253.929688 203.46875 253.125 C 204.566406 252.542969 205.507812 251.703125 206.210938 250.675781 C 206.289062 250.5625 206.363281 250.445312 206.4375 250.328125 C 206.84375 249.65625 207.148438 248.925781 207.339844 248.164062 C 207.347656 248.132812 207.359375 248.097656 207.363281 248.0625 C 207.367188 248.058594 207.367188 248.054688 207.367188 248.046875 C 207.785156 246.597656 207.761719 245.0625 207.304688 243.625 C 206.019531 239.550781 201.667969 237.285156 197.578125 238.566406 C 195.609375 239.179688 193.96875 240.554688 193.019531 242.378906 C 192.648438 241.5625 192.222656 240.605469 191.765625 239.585938 C 191.765625 239.585938 191.765625 239.585938 191.765625 239.582031 C 191.34375 238.578125 190.867188 237.527344 190.382812 236.496094 C 189.503906 234.542969 188.648438 232.636719 188.03125 231.261719 C 187.910156 230.988281 187.746094 230.734375 187.546875 230.507812 L 201.550781 224.746094 C 202.128906 224.503906 202.492188 223.925781 202.457031 223.304688 C 202.429688 222.6875 202.011719 222.15625 201.417969 221.980469 C 198.441406 221.074219 196.769531 217.933594 197.675781 214.964844 C 198.585938 212 201.738281 210.332031 204.710938 211.238281 C 206.136719 211.671875 207.328125 212.648438 208.03125 213.957031 C 208.855469 215.507812 208.582031 218.167969 208.425781 219.242188 C 208.296875 220.121094 208.90625 220.933594 209.789062 221.0625 C 210.078125 221.105469 210.371094 221.070312 210.640625 220.957031 L 223.59375 215.558594 L 237.40625 248.492188 C 237.640625 249.046875 237.644531 249.667969 237.414062 250.21875 Z M 231.910156 268.507812 C 231.828125 268.828125 231.691406 269.132812 231.507812 269.410156 L 231.488281 269.441406 C 231.484375 269.449219 230.953125 270.3125 230.332031 271.269531 C 230.261719 271.378906 230.1875 271.488281 230.117188 271.597656 L 208.988281 271.617188 C 208.929688 271.558594 208.871094 271.496094 208.8125 271.4375 C 207.441406 269.988281 206.628906 268.097656 206.53125 266.105469 L 221.855469 259.71875 C 221.527344 260.324219 221.207031 260.953125 220.90625 261.589844 L 222.832031 262.488281 C 223.222656 261.65625 223.644531 260.84375 224.082031 260.074219 C 224.535156 259.300781 225.125 258.621094 225.828125 258.0625 C 226.335938 257.644531 226.894531 257.296875 227.488281 257.019531 L 228.269531 256.699219 L 228.132812 255.867188 C 228.132812 255.851562 228.066406 255.472656 227.96875 254.871094 C 227.652344 252.964844 226.96875 248.839844 226.714844 247.214844 C 226.511719 245.945312 226.746094 244.644531 227.375 243.523438 C 227.835938 242.867188 228.585938 242.476562 229.386719 242.472656 C 229.738281 242.460938 230.070312 242.644531 230.253906 242.945312 L 233.359375 252.625 L 234.011719 254.648438 L 234.898438 257.414062 Z M 231.242188 273.71875 L 231.320312 279.046875 C 231.199219 279.128906 231.054688 279.171875 230.910156 279.164062 L 207.902344 279.347656 C 207.75 279.359375 207.601562 279.3125 207.476562 279.226562 L 207.398438 273.742188 Z M 200.316406 266.996094 C 197.40625 268.296875 192.484375 270.492188 189.457031 271.84375 C 190.515625 267.707031 188.011719 263.492188 183.863281 262.433594 C 179.710938 261.375 175.484375 263.871094 174.421875 268.007812 C 174.050781 269.457031 174.109375 270.984375 174.589844 272.402344 C 175.1875 274.15625 176.789062 275.714844 178.257812 276.839844 L 166.25 282.195312 L 151.378906 249.070312 C 150.867188 247.933594 151.378906 246.597656 152.519531 246.089844 L 153.457031 245.667969 L 156.894531 256.375 L 156.9375 256.460938 C 157.460938 257.464844 158.496094 258.109375 159.632812 258.132812 C 159.691406 258.136719 159.746094 258.136719 159.804688 258.136719 C 161.308594 258.109375 162.703125 257.347656 163.53125 256.09375 L 163.550781 256.066406 C 164.4375 254.515625 164.773438 252.710938 164.5 250.949219 C 164.230469 249.242188 163.5 244.828125 163.203125 243.042969 C 164.617188 242.25 165.8125 241.125 166.691406 239.765625 L 182.59375 232.671875 L 184.664062 231.746094 L 184.863281 231.660156 C 184.980469 231.605469 185.109375 231.578125 185.242188 231.578125 C 185.355469 231.578125 185.46875 231.597656 185.574219 231.640625 C 185.804688 231.726562 185.992188 231.902344 186.09375 232.125 C 187.027344 234.207031 188.503906 237.5 189.78125 240.34375 C 189.78125 240.351562 189.785156 240.359375 189.789062 240.363281 C 190.53125 242.136719 191.203125 243.746094 191.644531 244.792969 C 191.957031 245.546875 192.824219 245.902344 193.582031 245.585938 C 193.984375 245.417969 194.296875 245.078125 194.425781 244.660156 C 195.136719 241.640625 198.167969 239.769531 201.195312 240.476562 C 204.222656 241.1875 206.101562 244.210938 205.390625 247.226562 C 205.03125 248.75 204.054688 250.054688 202.691406 250.824219 C 201.152344 251.6875 198.472656 251.476562 197.394531 251.351562 C 196.816406 251.28125 196.25 251.527344 195.90625 251.992188 C 195.898438 252 195.890625 252.011719 195.882812 252.023438 C 195.558594 252.484375 195.5 253.082031 195.730469 253.601562 L 200.972656 265.277344 C 201.265625 265.933594 200.972656 266.703125 200.316406 266.996094 Z M 181.304688 224.957031 L 181.273438 224.957031 L 181.253906 224.921875 L 158.296875 225.105469 C 158.144531 225.117188 157.992188 225.074219 157.871094 224.980469 L 157.867188 224.769531 L 157.792969 219.445312 C 157.914062 219.359375 158.058594 219.320312 158.203125 219.324219 L 181.210938 219.140625 C 181.363281 219.132812 181.511719 219.175781 181.632812 219.265625 L 181.710938 224.835938 C 181.59375 224.917969 181.449219 224.960938 181.304688 224.957031 Z M 168.0625 236.832031 L 165.199219 238.109375 C 165.144531 238.210938 165.085938 238.3125 165.03125 238.410156 C 163.816406 240.539062 161.644531 241.460938 161.625 241.46875 L 160.839844 241.789062 L 160.929688 242.335938 L 160.980469 242.625 C 160.992188 242.6875 162.0625 249.136719 162.398438 251.277344 C 162.601562 252.542969 162.367188 253.84375 161.734375 254.960938 C 161.28125 255.621094 160.527344 256.015625 159.726562 256.019531 C 159.375 256.027344 159.042969 255.847656 158.859375 255.546875 L 155.410156 244.800781 L 154.757812 242.769531 L 154.210938 241.070312 L 157.199219 229.980469 C 157.285156 229.660156 157.417969 229.355469 157.605469 229.078125 L 157.621094 229.050781 C 157.628906 229.039062 158.160156 228.175781 158.78125 227.21875 L 180.296875 227.050781 C 181.222656 228.027344 181.894531 229.207031 182.269531 230.496094 Z M 239.367188 247.675781 L 224.734375 212.789062 L 210.636719 218.664062 C 210.800781 217.011719 210.8125 214.660156 209.90625 212.960938 C 207.886719 209.195312 203.1875 207.773438 199.410156 209.789062 C 195.628906 211.800781 194.203125 216.488281 196.222656 220.253906 C 196.929688 221.574219 198.007812 222.660156 199.320312 223.378906 L 184.441406 229.566406 C 184.371094 229.585938 184.296875 229.605469 184.226562 229.632812 C 183.890625 228.570312 183.386719 227.570312 182.730469 226.671875 C 182.917969 226.566406 183.089844 226.433594 183.242188 226.28125 C 183.617188 225.917969 183.832031 225.417969 183.835938 224.894531 L 183.835938 224.867188 L 183.757812 219.175781 C 183.757812 219.136719 183.75 219.097656 183.75 219.0625 L 184.960938 219.050781 C 185.546875 219.046875 186.019531 218.566406 186.015625 217.984375 C 186.015625 217.980469 186.011719 217.980469 186.011719 217.976562 L 185.8125 202.53125 L 183.6875 202.558594 L 183.875 216.941406 L 155.492188 217.167969 L 155.308594 202.53125 L 153.183594 202.558594 L 153.382812 218.25 C 153.390625 218.828125 153.863281 219.296875 154.445312 219.296875 L 154.453125 219.296875 L 155.671875 219.285156 C 155.671875 219.328125 155.667969 219.367188 155.667969 219.410156 L 155.75 225.101562 C 155.765625 225.734375 156.078125 226.324219 156.597656 226.691406 C 156.1875 227.332031 155.878906 227.835938 155.820312 227.929688 C 155.511719 228.398438 155.285156 228.914062 155.144531 229.453125 L 155.109375 229.582031 L 155.085938 229.574219 L 152 241.125 L 152.804688 243.640625 L 151.652344 244.152344 C 149.441406 245.140625 148.449219 247.726562 149.4375 249.933594 C 149.4375 249.933594 149.441406 249.933594 149.441406 249.9375 L 165.179688 284.996094 L 179.933594 278.410156 C 180.746094 278.046875 181.109375 277.097656 180.742188 276.289062 C 180.625 276.023438 180.4375 275.796875 180.199219 275.632812 C 178.308594 274.308594 176.996094 272.882812 176.601562 271.71875 C 175.609375 268.78125 177.195312 265.597656 180.144531 264.609375 C 183.09375 263.621094 186.289062 265.203125 187.277344 268.144531 C 187.75 269.542969 187.648438 271.070312 187 272.398438 C 186.636719 273.125 186.933594 274.011719 187.664062 274.375 C 188.058594 274.574219 188.523438 274.582031 188.929688 274.402344 C 191.574219 273.21875 197.765625 270.453125 201.183594 268.929688 C 201.761719 268.671875 202.257812 268.261719 202.613281 267.738281 L 204.472656 266.964844 C 204.6875 268.714844 205.34375 270.386719 206.378906 271.816406 C 206.195312 271.921875 206.023438 272.054688 205.871094 272.207031 C 205.488281 272.578125 205.273438 273.089844 205.273438 273.621094 L 205.355469 279.3125 C 205.355469 279.351562 205.359375 279.386719 205.363281 279.425781 L 204.152344 279.4375 C 203.566406 279.441406 203.09375 279.917969 203.097656 280.503906 C 203.097656 280.507812 203.097656 280.507812 203.097656 280.511719 L 203.300781 293.84375 L 205.421875 293.8125 L 205.238281 281.546875 L 233.621094 281.320312 L 233.804688 293.84375 L 235.929688 293.8125 L 235.730469 280.238281 C 235.722656 279.660156 235.25 279.195312 234.667969 279.195312 L 234.660156 279.195312 L 233.441406 279.203125 C 233.441406 279.160156 233.445312 279.121094 233.445312 279.078125 L 233.367188 273.390625 C 233.347656 272.757812 233.035156 272.167969 232.515625 271.800781 C 232.925781 271.160156 233.234375 270.65625 233.292969 270.5625 C 233.601562 270.09375 233.832031 269.578125 233.96875 269.035156 L 234 268.90625 L 234.027344 268.914062 L 237.113281 257.363281 L 235.976562 253.828125 L 237.011719 253.398438 C 239.246094 252.46875 240.300781 249.910156 239.371094 247.683594 C 239.371094 247.679688 239.367188 247.679688 239.367188 247.675781 " fill-opacity="1" fill-rule="nonzero"/></g><path fill="#0277b5" d="M 170.917969 286.488281 L 172.804688 285.515625 L 175.257812 290.261719 L 173.371094 291.230469 L 170.917969 286.488281 " fill-opacity="1" fill-rule="nonzero"/><path fill="#0277b5" d="M 155.625 290.261719 L 158.078125 285.515625 L 159.964844 286.488281 L 157.511719 291.230469 L 155.625 290.261719 " fill-opacity="1" fill-rule="nonzero"/><g clip-path="url(#5b30e5a0cf)"><path fill="#0277b5" d="M 164.3125 293.980469 L 164.445312 288.644531 L 166.570312 288.695312 L 166.4375 294.035156 L 164.3125 293.980469 " fill-opacity="1" fill-rule="nonzero"/></g><path fill="#0277b5" d="M 215.871094 206.523438 L 217.761719 205.554688 L 220.214844 210.296875 L 218.324219 211.265625 L 215.871094 206.523438 " fill-opacity="1" fill-rule="nonzero"/><path fill="#0277b5" d="M 231.167969 210.296875 L 233.621094 205.550781 L 235.507812 206.523438 L 233.054688 211.265625 L 231.167969 210.296875 " fill-opacity="1" fill-rule="nonzero"/><g clip-path="url(#5dce6a27ce)"><path fill="#0277b5" d="M 224.5625 208.085938 L 224.695312 202.75 L 226.820312 202.804688 L 226.683594 208.140625 L 224.5625 208.085938 " fill-opacity="1" fill-rule="nonzero"/></g><g fill="#0277b5" fill-opacity="1"><g transform="translate(153.216195, 195.429961)"><g><path d="M -8.46875 -21.449219 C -9.769531 -20.292969 -11.867188 -18.261719 -12.226562 -15.640625 C -12.472656 -12.535156 -9.070312 -11.105469 -9.089844 -11.871094 C -9.015625 -12.21875 -8.992188 -12.519531 -8.945312 -12.796875 C -8.761719 -12.472656 -8.460938 -12.074219 -8.324219 -11.65625 C -5.675781 -7.078125 -3.21875 -1.289062 -2.109375 -0.21875 C -1.53125 0.273438 -0.882812 0.460938 0.0234375 0.0234375 C 0.230469 -0.0898438 0.417969 -0.230469 0.652344 -0.320312 C 0.71875 -0.34375 0.789062 -0.367188 0.835938 -0.414062 C 9.03125 -7.199219 7.480469 -13.097656 6.304688 -14.796875 C 4.6875 -16.9375 2.300781 -16.878906 -0.144531 -14.453125 C 1.636719 -18.851562 1.554688 -21.3125 0.445312 -22.800781 C -1.261719 -24.988281 -4.554688 -24.910156 -8.46875 -21.449219 Z M 2.808594 -11.515625 C 3.914062 -9.65625 2.625 -6.53125 0.597656 -4.335938 C -0.160156 -5.613281 -0.988281 -7.382812 -1.886719 -8.9375 C -1.933594 -9.078125 -2 -9.195312 -2.023438 -9.3125 C -0.503906 -12.667969 1.726562 -13.261719 2.808594 -11.515625 Z M -2.90625 -19.660156 C -2.007812 -18.335938 -2.113281 -15.691406 -3.542969 -12.378906 C -4.277344 -14.050781 -4.757812 -15.191406 -5.335938 -16.191406 C -5.886719 -17.214844 -6.675781 -17.542969 -7.464844 -17.5 C -6.878906 -18.449219 -6.226562 -19.09375 -5.808594 -19.464844 C -4.457031 -20.570312 -3.507812 -20.359375 -2.90625 -19.660156 Z M -2.90625 -19.660156 "/></g></g></g><g fill="#0277b5" fill-opacity="1"><g transform="translate(164.954064, 184.295536)"><g><path d="M -6.101562 -11.546875 C -4.535156 -10.480469 -3.675781 -2.457031 -2.511719 -0.667969 C -2.117188 -0.101562 -1.507812 0.25 -0.511719 0.0507812 C 1.082031 -0.253906 2.996094 -2.386719 2.664062 -2.605469 C 1.578125 -3.589844 0.773438 -5.796875 0.117188 -8.132812 C -0.339844 -9.785156 -0.585938 -11.527344 -0.875 -12.238281 C -1.914062 -15.925781 -7.113281 -12.421875 -6.101562 -11.546875 Z M -6.019531 -19.429688 C -7.492188 -18.695312 -8.304688 -17.214844 -7.835938 -16.035156 C -7.3125 -14.894531 -5.632812 -14.441406 -4.148438 -15.101562 C -2.648438 -15.734375 -1.871094 -17.269531 -2.382812 -18.457031 C -2.890625 -19.574219 -4.480469 -20.007812 -6.019531 -19.429688 Z M -6.019531 -19.429688 "/></g></g></g><g fill="#0277b5" fill-opacity="1"><g transform="translate(170.078721, 180.477028)"><g><path d="M 2.550781 -16.007812 C 2.042969 -15.957031 1.570312 -15.914062 1.171875 -15.761719 C 0.957031 -15.679688 0.773438 -15.609375 0.617188 -15.550781 C -2.140625 -14.320312 -4.152344 -11.125 -4.085938 -7.746094 C -4.027344 -3.550781 -0.933594 -0.417969 2.820312 -0.796875 C 6.492188 -1.113281 9.402344 -4.898438 9.355469 -9.058594 C 9.34375 -13.304688 6.261719 -16.410156 2.550781 -16.007812 Z M 4.734375 -5.992188 C 4.40625 -3.441406 3.210938 -2.351562 2.039062 -3.484375 C 0.960938 -4.652344 0.21875 -8.335938 0.585938 -10.867188 C 0.835938 -12.507812 1.410156 -13.570312 2.109375 -13.765625 C 2.230469 -13.8125 2.304688 -13.808594 2.402344 -13.738281 C 2.710938 -13.753906 2.996094 -13.652344 3.257812 -13.328125 C 4.382812 -12.144531 5.101562 -8.519531 4.734375 -5.992188 Z M 4.734375 -5.992188 "/></g></g></g><g fill="#0277b5" fill-opacity="1"><g transform="translate(182.084869, 175.350596)"><g><path d="M 7.28125 -21.878906 C 5.542969 -21.832031 2.628906 -21.617188 0.671875 -19.839844 C -1.511719 -17.617188 0.179688 -14.335938 0.65625 -14.933594 C 0.933594 -15.15625 1.144531 -15.371094 1.359375 -15.554688 C 1.292969 -15.1875 1.269531 -14.691406 1.105469 -14.28125 C 0.195312 -9.070312 -1.640625 -3.054688 -1.476562 -1.523438 C -1.347656 -0.777344 -0.972656 -0.214844 0.00390625 0.03125 C 0.238281 0.078125 0.46875 0.09375 0.707031 0.171875 C 0.773438 0.199219 0.84375 0.226562 0.90625 0.21875 C 11.546875 0.28125 14.144531 -5.238281 14.332031 -7.292969 C 14.472656 -9.972656 12.601562 -11.460938 9.167969 -11.171875 C 13.359375 -13.402344 14.875 -15.339844 14.984375 -17.191406 C 15.082031 -19.964844 12.503906 -22.019531 7.28125 -21.878906 Z M 9.550781 -7.023438 C 9.203125 -4.886719 6.207031 -3.320312 3.242188 -2.9375 C 3.480469 -4.40625 3.980469 -6.292969 4.292969 -8.0625 C 4.347656 -8.199219 4.371094 -8.332031 4.425781 -8.4375 C 7.75 -10.03125 9.839844 -9.054688 9.550781 -7.023438 Z M 10.398438 -16.9375 C 10.234375 -15.34375 8.457031 -13.382812 5.234375 -11.765625 C 5.746094 -13.519531 6.105469 -14.703125 6.308594 -15.835938 C 6.542969 -16.976562 6.148438 -17.734375 5.515625 -18.207031 C 6.574219 -18.558594 7.488281 -18.636719 8.046875 -18.648438 C 9.792969 -18.632812 10.386719 -17.859375 10.398438 -16.9375 Z M 10.398438 -16.9375 "/></g></g></g><g fill="#0277b5" fill-opacity="1"><g transform="translate(197.798864, 173.920507)"><g><path d="M 10.707031 -12.171875 C 10.25 -12.398438 9.824219 -12.617188 9.40625 -12.703125 C 9.179688 -12.746094 8.988281 -12.785156 8.828125 -12.816406 C 5.835938 -13.25 2.433594 -11.625 0.679688 -8.730469 C -1.507812 -5.152344 -0.566406 -0.847656 2.8125 0.832031 C 6.085938 2.523438 10.5625 0.878906 12.746094 -2.664062 C 15.007812 -6.257812 14.054688 -10.53125 10.707031 -12.171875 Z M 7.199219 -2.539062 C 5.566406 -0.558594 3.96875 -0.273438 3.585938 -1.855469 C 3.296875 -3.421875 4.636719 -6.933594 6.296875 -8.875 C 7.382812 -10.128906 8.441406 -10.71875 9.136719 -10.515625 C 9.261719 -10.488281 9.320312 -10.441406 9.367188 -10.332031 C 9.636719 -10.179688 9.824219 -9.941406 9.875 -9.53125 C 10.1875 -7.925781 8.863281 -4.480469 7.199219 -2.539062 Z M 7.199219 -2.539062 "/></g></g></g><g fill="#0277b5" fill-opacity="1"><g transform="translate(210.769873, 176.25921)"><g><path d="M 13.457031 -9.039062 C 13.074219 -9.375 12.71875 -9.695312 12.335938 -9.882812 C 12.128906 -9.984375 11.953125 -10.070312 11.804688 -10.140625 C 9.023438 -11.324219 5.316406 -10.621094 2.882812 -8.269531 C -0.144531 -5.367188 -0.332031 -0.964844 2.507812 1.519531 C 5.238281 3.992188 9.988281 3.546875 13.003906 0.675781 C 16.105469 -2.222656 16.277344 -6.597656 13.457031 -9.039062 Z M 7.609375 -0.617188 C 5.523438 0.882812 3.910156 0.746094 3.941406 -0.882812 C 4.058594 -2.46875 6.25 -5.519531 8.351562 -6.976562 C 9.722656 -7.910156 10.894531 -8.210938 11.515625 -7.835938 C 11.632812 -7.777344 11.675781 -7.71875 11.691406 -7.601562 C 11.914062 -7.382812 12.035156 -7.105469 11.976562 -6.695312 C 11.875 -5.066406 9.710938 -2.070312 7.609375 -0.617188 Z M 7.609375 -0.617188 "/></g></g></g><g fill="#0277b5" fill-opacity="1"><g transform="translate(222.716944, 181.852059)"><g><path d="M 16.496094 -4.65625 C 13.84375 -7.207031 9.117188 -9.8125 6.609375 -7.511719 C 5.722656 -6.632812 5.75 -5.308594 6.167969 -4.035156 C 6.550781 -2.621094 7.070312 -1.265625 7.4375 -0.0820312 C 7.8125 0.890625 8 1.574219 7.527344 2.074219 C 7.203125 2.398438 6.066406 2.15625 5.277344 1.214844 C 4.246094 0.152344 3.898438 -1.054688 4.21875 -1.472656 C 4.472656 -1.816406 4.773438 -1.816406 5.210938 -1.871094 C 5.445312 -1.84375 5.660156 -2.089844 5.550781 -2.316406 C 5.335938 -3.671875 3.175781 -5.1875 1.550781 -4.207031 C -0.585938 -2.886719 -0.367188 0.0742188 2.855469 3.070312 C 5.824219 5.804688 8.578125 6.230469 9.816406 5.394531 C 11.003906 4.46875 11.128906 3.320312 10.890625 1.941406 C 10.511719 -0.03125 9.933594 -1.570312 9.699219 -2.503906 C 9.601562 -2.894531 9.394531 -3.808594 9.75 -4.371094 C 10.363281 -5.484375 12.128906 -5.871094 14.082031 -4.269531 C 14.773438 -3.761719 14.808594 -3.253906 14.351562 -3.128906 C 12.597656 -2.648438 11.96875 -2.671875 11.65625 -1.859375 C 11.097656 -0.257812 12.792969 1.894531 14.121094 1.609375 C 14.628906 0.316406 15.984375 0.402344 17.261719 -0.574219 C 18.253906 -1.320312 18.109375 -2.960938 16.496094 -4.65625 Z M 16.496094 -4.65625 "/></g></g></g><g fill="#0277b5" fill-opacity="1"><g transform="translate(232.683702, 190.41258)"><g><path d="M 16.039062 1.320312 C 16.578125 0.886719 16.675781 0.410156 16.539062 -0.222656 C 16.390625 -0.644531 15.875 -1.40625 15.210938 -2.257812 C 16.363281 -2.574219 17.292969 -2.804688 17.972656 -3.097656 C 21.609375 -4.457031 18.113281 -9.296875 17.476562 -8.222656 C 17.101562 -7.625 15.078125 -6.835938 12.601562 -6 C 12.289062 -6.703125 12.171875 -7.308594 12.230469 -7.839844 C 12.292969 -8.863281 8.015625 -7.769531 9.574219 -5.25 C 9.59375 -5.222656 9.648438 -5.144531 9.636719 -5.050781 C 6.464844 -3.996094 3.257812 -2.992188 2.113281 -2.113281 C 1.019531 -1.273438 0.359375 0.101562 1.121094 1.535156 C 2.679688 4.5 5.796875 5.148438 7.484375 4.566406 C 7.777344 4.472656 7.863281 4.085938 7.644531 3.839844 C 7.261719 3.429688 5.628906 3.363281 4.980469 2.253906 C 4.523438 1.242188 5.824219 0.742188 9.355469 -0.375 C 10.394531 -0.730469 11.371094 -1.121094 12.378906 -1.410156 C 12.574219 -1.144531 12.734375 -0.8125 12.867188 -0.628906 C 13.535156 0.507812 13.414062 1.003906 13.109375 1.757812 C 13.164062 2 15.132812 2.023438 16.039062 1.320312 Z M 16.039062 1.320312 "/></g></g></g></svg>