<svg xmlns="http://www.w3.org/2000/svg" xmlns:xlink="http://www.w3.org/1999/xlink" width="500" zoomAndPan="magnify" viewBox="0 0 375 374.999991" height="500" preserveAspectRatio="xMidYMid meet" version="1.0"><defs><clipPath id="e723598a36"><path d="M 47.914062 11.011719 L 327.042969 11.011719 L 327.042969 364.261719 L 47.914062 364.261719 Z M 47.914062 11.011719 " clip-rule="nonzero"/></clipPath></defs><rect x="-37.5" width="450" fill="#ffffff" y="-37.499999" height="449.999989" fill-opacity="1"/><rect x="-37.5" width="450" fill="#ffffff" y="-37.499999" height="449.999989" fill-opacity="1"/><rect x="-37.5" width="450" fill="#ffffff" y="-37.499999" height="449.999989" fill-opacity="1"/><g clip-path="url(#e723598a36)"><path fill="#ffffff" d="M 251.363281 204.164062 C 295.84375 224.046875 327.074219 268.769531 327.074219 320.484375 C 327.074219 378.878906 47.914062 378.878906 47.914062 320.484375 C 47.914062 268.769531 79.109375 224.046875 123.621094 204.164062 C 131.390625 214.105469 157.046875 221.382812 187.492188 221.382812 C 217.941406 221.382812 243.59375 214.105469 251.363281 204.164062 Z M 187.492188 11.011719 C 238.394531 11.011719 279.617188 52.316406 279.617188 103.246094 C 279.617188 154.175781 238.394531 195.445312 187.492188 195.445312 C 136.621094 195.445312 95.367188 154.175781 95.367188 103.246094 C 95.367188 52.316406 136.621094 11.011719 187.492188 11.011719 " fill-opacity="1" fill-rule="nonzero"/></g></svg>