<svg xmlns="http://www.w3.org/2000/svg" xmlns:xlink="http://www.w3.org/1999/xlink" width="500" zoomAndPan="magnify" viewBox="0 0 375 374.999991" height="500" preserveAspectRatio="xMidYMid meet" version="1.0"><defs><g/><clipPath id="b62f1fd6e4"><path d="M 181.988281 156.664062 L 258.925781 156.664062 L 258.925781 208.511719 L 181.988281 208.511719 Z M 181.988281 156.664062 " clip-rule="nonzero"/></clipPath></defs><rect x="-37.5" width="450" fill="#ffffff" y="-37.499999" height="449.999989" fill-opacity="1"/><rect x="-37.5" width="450" fill="#ffffff" y="-37.499999" height="449.999989" fill-opacity="1"/><rect x="-37.5" width="450" fill="#ffffff" y="-37.499999" height="449.999989" fill-opacity="1"/><g fill="#0077b5" fill-opacity="1"><g transform="translate(116.54531, 227.648195)"><g><path d="M 92.8125 -68.078125 C 92.3125 -67.828125 92.0625 -67.515625 92.0625 -67.140625 C 92.0625 -66.773438 92.3125 -66.46875 92.8125 -66.21875 C 98.019531 -63.113281 101.894531 -59.175781 104.4375 -54.40625 C 106.976562 -49.632812 108.25 -43.898438 108.25 -37.203125 C 108.25 -24.429688 103.785156 -15.035156 94.859375 -9.015625 C 85.929688 -3.003906 74.335938 0 60.078125 0 L 10.78125 0 C 8.425781 0 7.25 -1.175781 7.25 -3.53125 L 7.25 -126.671875 C 7.25 -129.023438 8.425781 -130.203125 10.78125 -130.203125 L 58.40625 -130.203125 C 74.28125 -130.203125 86.210938 -127.378906 94.203125 -121.734375 C 102.203125 -116.097656 106.203125 -106.644531 106.203125 -93.375 C 106.203125 -81.84375 101.738281 -73.410156 92.8125 -68.078125 Z M 43.703125 -100.25 C 42.710938 -100.25 42.21875 -99.753906 42.21875 -98.765625 L 42.21875 -81.28125 C 42.21875 -80.289062 42.710938 -79.796875 43.703125 -79.796875 L 58.40625 -79.796875 C 67.457031 -79.796875 71.984375 -83.207031 71.984375 -90.03125 C 71.984375 -96.84375 67.457031 -100.25 58.40625 -100.25 Z M 60.078125 -29.953125 C 68.878906 -29.953125 73.28125 -33.609375 73.28125 -40.921875 C 73.28125 -47.867188 68.941406 -51.34375 60.265625 -51.34375 L 43.703125 -51.34375 C 42.710938 -51.34375 42.21875 -50.84375 42.21875 -49.84375 L 42.21875 -31.4375 C 42.21875 -30.445312 42.710938 -29.953125 43.703125 -29.953125 Z M 60.078125 -29.953125 "/></g></g></g><g clip-path="url(#b62f1fd6e4)"><path fill="#1ea1e6" d="M 252.582031 201.285156 C 252.582031 201.285156 250.300781 208.511719 221.382812 208.511719 L 191.21875 208.511719 C 191.21875 199.949219 206.65625 203.859375 201.332031 195.226562 C 184.160156 167.378906 178.394531 169.132812 184.160156 167.378906 C 189.925781 165.625 184.253906 167.378906 224.398438 188.207031 C 251.886719 156.992188 247.039062 155.828125 252.03125 156.910156 C 257.027344 157.992188 252.078125 156.902344 244.371094 192.53125 C 249.953125 192.53125 251.441406 193.929688 252.582031 197.066406 C 258.871094 198.632812 258.917969 201.285156 258.917969 201.285156 Z M 252.582031 201.285156 " fill-opacity="1" fill-rule="nonzero"/></g></svg>